<?xml version="1.0" standalone="no"?>
<!DOCTYPE svg PUBLIC "-//W3C//DTD SVG 20010904//EN"
 "http://www.w3.org/TR/2001/REC-SVG-20010904/DTD/svg10.dtd">
<svg version="1.0" xmlns="http://www.w3.org/2000/svg"
 width="1280.000000pt" height="1280.000000pt" viewBox="0 0 1280.000000 1280.000000"
 preserveAspectRatio="xMidYMid meet">
<metadata>
Created by potrace 1.15, written by Peter Selinger 2001-2017
</metadata>
<g transform="translate(0.000000,1280.000000) scale(0.100000,-0.100000)"
fill="#000000" stroke="none">
<path d="M6095 12794 c-1485 -79 -2868 -646 -3958 -1623 -627 -562 -1114
-1205 -1488 -1964 -342 -695 -547 -1432 -626 -2252 -24 -252 -24 -858 0 -1110
81 -839 291 -1583 648 -2297 306 -612 673 -1127 1149 -1612 333 -340 647 -603
1007 -844 916 -613 1896 -960 3018 -1069 252 -24 910 -24 1180 1 641 58 1157
168 1710 364 1985 704 3429 2359 3900 4471 67 302 114 621 147 991 19 221 16
851 -5 1080 -50 538 -149 1011 -311 1495 -486 1445 -1463 2665 -2771 3457
-830 503 -1741 800 -2735 893 -157 15 -712 27 -865 19z m1030 -419 c245 -25
309 -34 506 -74 405 -82 721 -163 836 -214 43 -19 96 -40 118 -47 50 -16 327
-128 420 -170 38 -17 83 -42 100 -54 16 -13 55 -36 85 -51 30 -15 73 -42 95
-60 22 -17 62 -46 89 -64 59 -39 142 -108 170 -141 12 -13 89 -94 172 -180
181 -185 254 -273 254 -303 0 -24 18 -55 55 -97 13 -14 26 -39 30 -57 8 -38
44 -64 122 -86 30 -9 74 -34 107 -61 81 -66 159 -117 311 -204 86 -49 163
-102 212 -147 108 -97 297 -301 445 -480 69 -82 133 -157 142 -165 10 -8 41
-48 69 -90 28 -41 71 -102 95 -135 24 -33 53 -78 64 -100 11 -22 48 -83 83
-135 35 -52 98 -160 140 -240 43 -80 104 -190 136 -245 148 -256 239 -513 339
-960 88 -396 116 -622 150 -1235 6 -102 12 -208 15 -235 6 -61 -11 -393 -25
-525 -12 -106 -91 -473 -121 -565 -60 -180 -216 -430 -325 -522 -25 -21 -63
-55 -85 -75 -53 -49 -75 -55 -108 -29 -14 12 -48 36 -74 53 -29 19 -47 38 -45
47 2 9 28 32 58 52 102 68 318 308 390 433 83 146 177 546 205 870 9 104 13
205 10 225 -4 20 -11 108 -16 196 -16 317 -28 440 -53 544 -13 58 -27 131 -31
161 -3 30 -10 69 -15 85 -5 17 -19 93 -31 170 -21 144 -55 265 -114 418 -19
48 -35 93 -35 99 0 6 -11 36 -25 67 -13 31 -42 101 -64 156 -22 55 -56 138
-76 185 -64 149 -145 341 -196 470 -58 143 -121 253 -195 343 -28 34 -73 100
-100 147 -26 47 -65 103 -85 126 -20 23 -42 51 -49 64 -13 23 -148 191 -250
310 -31 36 -67 80 -80 99 -42 61 -129 153 -170 180 -21 14 -72 56 -112 92 -40
37 -92 76 -115 88 -24 12 -87 61 -141 109 -140 125 -265 213 -395 277 -75 36
-81 38 -150 32 -85 -7 -143 4 -197 38 -22 14 -45 25 -51 25 -6 0 -28 -15 -50
-33 l-39 -34 -138 -6 c-188 -9 -244 -27 -433 -138 -77 -46 -206 -175 -238
-237 -24 -47 -55 -184 -72 -322 -12 -89 -8 -250 10 -505 6 -82 15 -328 21
-545 5 -217 13 -414 18 -437 5 -23 6 -65 1 -92 -12 -77 -107 -235 -222 -370
-54 -64 -126 -148 -159 -188 -40 -48 -72 -76 -94 -83 -54 -18 -164 -160 -164
-212 0 -35 41 -70 116 -98 25 -10 33 -4 148 108 128 125 266 251 431 394 160
137 413 380 442 423 14 22 47 65 73 95 49 59 178 230 201 268 8 12 39 43 70
67 31 25 70 65 87 89 l29 45 8 353 c4 231 12 378 21 426 8 41 14 104 14 141 0
39 5 72 12 79 7 7 37 12 68 12 30 0 110 7 177 16 67 9 133 14 146 10 16 -4 43
-33 78 -83 29 -43 94 -126 145 -184 50 -58 109 -132 131 -165 22 -32 65 -96
96 -141 183 -262 363 -674 403 -918 16 -102 22 -315 8 -336 -8 -13 -122 -5
-138 11 -5 5 -3 18 7 33 14 22 15 41 2 198 -8 96 -19 197 -24 224 -13 62 -37
150 -44 162 -3 5 -10 37 -16 71 -9 59 -79 223 -100 236 -5 4 -21 31 -34 60
-26 57 -119 200 -137 211 -6 4 -21 23 -34 43 -28 44 -191 231 -217 250 -11 7
-42 38 -70 67 -53 56 -121 95 -200 115 -36 9 -54 8 -103 -7 -51 -16 -62 -24
-80 -58 -20 -38 -21 -61 -27 -390 -4 -192 -11 -370 -17 -395 -18 -80 -53 -159
-87 -203 -19 -23 -51 -67 -71 -97 -21 -30 -55 -77 -77 -104 -21 -27 -48 -68
-59 -90 -31 -62 -85 -129 -168 -208 -41 -40 -120 -119 -175 -175 -95 -97 -139
-137 -413 -370 -62 -52 -125 -111 -140 -129 -15 -19 -31 -34 -35 -34 -13 0
-79 -52 -110 -87 -16 -18 -58 -54 -95 -80 -57 -40 -156 -118 -212 -168 -8 -7
-32 -37 -53 -67 -83 -116 -87 -126 -92 -200 -3 -39 -11 -93 -19 -122 -23 -79
-37 -182 -42 -291 -2 -55 -9 -124 -14 -154 -6 -30 -10 -80 -10 -110 0 -63 -24
-146 -77 -271 -70 -165 -109 -234 -144 -254 -19 -11 -53 -36 -77 -57 -24 -21
-66 -45 -93 -54 -44 -15 -50 -21 -59 -56 -6 -22 -30 -61 -53 -87 -23 -27 -52
-61 -64 -75 -13 -15 -28 -27 -34 -27 -6 0 -28 -14 -49 -30 -68 -54 -68 -34 -2
47 89 107 122 183 86 197 -50 19 -84 -4 -100 -69 -7 -30 -31 -65 -45 -65 -21
0 -39 35 -39 74 0 86 7 99 78 147 37 24 99 67 137 95 39 28 91 61 117 73 54
26 236 209 267 269 14 28 23 76 31 168 12 150 34 288 61 395 25 101 25 134 -3
153 -31 22 -55 20 -72 -6 -25 -40 -54 -198 -76 -408 -11 -113 -23 -217 -26
-231 -6 -30 -67 -114 -130 -181 -31 -32 -62 -52 -97 -64 -37 -12 -71 -36 -123
-85 -57 -54 -172 -129 -199 -129 -16 0 -1 22 20 30 38 14 106 90 103 114 -2
13 -19 29 -43 42 -65 34 -61 67 22 179 45 60 70 83 113 105 71 37 194 141 213
183 8 17 18 68 22 112 10 112 29 184 81 298 42 93 44 100 30 122 -20 30 -52
40 -73 23 -17 -14 -60 -103 -99 -208 -14 -36 -29 -105 -34 -154 -16 -163 -103
-284 -215 -301 -26 -3 -49 -5 -51 -3 -2 3 26 36 61 75 36 39 65 79 65 89 0 10
-11 29 -25 44 l-24 25 10 130 c12 168 25 238 54 296 28 55 290 309 388 377 34
24 79 54 99 68 25 18 50 51 77 104 40 75 186 280 201 280 4 0 41 31 82 69 41
37 95 82 119 99 24 17 90 77 146 134 91 92 106 112 138 188 84 196 84 275 0
725 -39 214 -46 837 -10 955 10 32 15 70 12 94 -3 24 0 50 8 65 7 14 25 75 39
134 14 60 38 129 53 155 51 92 181 209 304 275 88 48 113 54 279 71 126 12
152 18 200 44 30 16 57 37 58 47 6 27 -27 115 -66 180 -21 33 -45 77 -54 99
-24 52 -290 313 -383 376 -41 27 -76 54 -80 59 -3 5 -30 19 -59 30 -30 11 -84
40 -122 65 -37 25 -93 55 -123 67 -31 11 -61 25 -67 30 -6 5 -36 18 -67 28
-71 25 -127 51 -148 68 -9 7 -53 27 -98 43 -46 17 -95 36 -109 44 -15 7 -72
26 -127 41 -55 15 -127 38 -160 50 -207 78 -326 89 -901 81 -236 -4 -483 -9
-549 -12 -70 -3 -147 -1 -185 6 -57 10 -408 115 -419 126 -14 13 52 36 209 75
19 5 132 16 250 24 118 9 220 18 225 20 28 10 536 3 660 -10z m-1773 -91 c48
-19 93 -34 99 -34 6 0 48 -11 93 -24 44 -13 110 -32 146 -42 64 -17 111 -34
223 -80 82 -34 237 -72 344 -84 61 -7 146 -7 259 0 218 13 723 13 931 0 127
-8 179 -15 239 -35 42 -14 87 -25 100 -25 13 0 46 -20 76 -45 29 -24 73 -57
98 -71 64 -39 87 -62 109 -108 31 -68 34 -104 10 -142 -11 -19 -31 -37 -44
-40 -13 -3 -89 11 -172 32 -137 35 -159 38 -298 38 -129 1 -160 -2 -221 -21
-114 -36 -176 -121 -127 -175 24 -27 43 -22 97 22 26 22 59 40 71 40 29 0 116
-68 143 -113 12 -18 26 -66 32 -106 11 -81 26 -115 64 -150 14 -14 26 -29 26
-34 0 -22 -255 23 -295 52 -5 4 -50 18 -98 31 -53 14 -115 39 -154 63 -70 42
-126 55 -315 76 -141 16 -216 14 -326 -10 -158 -33 -152 -29 -263 -157 -117
-136 -129 -156 -107 -178 25 -25 73 -9 98 31 25 40 130 139 169 159 73 38 151
48 331 43 189 -6 221 -12 364 -71 137 -57 343 -122 442 -140 49 -9 111 -21
137 -26 27 -6 80 -10 119 -10 63 0 78 4 156 45 111 57 153 92 191 160 29 51
31 61 31 154 l0 99 42 -10 c89 -20 209 -86 279 -153 37 -36 73 -65 81 -65 26
0 97 -71 118 -117 26 -60 25 -95 -4 -157 -14 -28 -36 -77 -50 -109 -20 -46
-32 -61 -60 -72 -20 -8 -40 -24 -46 -35 -14 -27 -86 -27 -160 0 -87 32 -180
140 -180 208 0 31 37 107 70 142 22 24 36 30 70 30 52 0 73 -11 99 -54 26 -42
26 -66 0 -100 -25 -32 -60 -34 -101 -4 l-31 22 -24 -28 c-12 -15 -23 -30 -23
-34 0 -21 41 -70 72 -86 35 -19 37 -19 83 -1 26 10 65 35 86 56 38 38 39 41
39 112 0 40 -7 97 -15 125 -14 45 -22 55 -57 73 -27 14 -69 23 -119 26 -73 5
-79 4 -98 -18 -11 -13 -38 -46 -61 -72 -50 -60 -65 -88 -78 -152 -12 -57 -6
-127 15 -169 20 -39 91 -114 133 -141 19 -12 61 -30 92 -39 33 -9 62 -24 67
-35 9 -16 1 -23 -66 -56 -42 -21 -95 -54 -117 -75 -53 -47 -60 -49 -131 -38
-66 10 -239 96 -310 153 -22 18 -78 58 -125 88 -47 31 -119 81 -160 111 -79
57 -251 166 -264 166 -4 0 -39 19 -77 41 -39 23 -113 56 -165 74 -52 18 -98
35 -101 39 -4 4 -28 16 -53 27 -59 27 -277 38 -372 20 -35 -7 -73 -14 -84 -17
-26 -5 -54 -67 -54 -119 0 -34 42 -129 62 -141 6 -4 62 -10 125 -15 63 -4 117
-10 121 -13 3 -4 0 -12 -7 -19 -8 -8 -47 -12 -125 -11 -115 2 -184 12 -296 44
-36 10 -83 24 -106 29 -23 6 -61 26 -85 44 -24 18 -51 36 -59 39 -24 9 -231
185 -273 231 -54 60 -115 150 -143 212 -19 40 -27 82 -34 166 -5 62 -7 116 -4
121 11 18 39 6 114 -49 165 -123 187 -137 265 -174 44 -20 108 -43 141 -50 57
-11 69 -11 140 10 106 31 121 42 155 117 24 52 29 77 29 139 0 91 -15 130 -76
202 -61 71 -76 80 -157 93 -57 9 -78 8 -127 -6 -32 -9 -68 -26 -79 -38 -22
-24 -41 -102 -41 -172 0 -39 4 -46 57 -93 84 -75 174 -83 213 -18 34 55 18
147 -26 147 -22 0 -54 -38 -54 -65 0 -48 -46 -26 -66 31 -30 86 -12 120 59
112 97 -11 169 -69 187 -151 31 -137 -56 -215 -209 -188 -38 7 -78 19 -88 26
-10 8 -27 15 -38 15 -27 0 -203 118 -307 205 -120 101 -250 240 -334 357 -79
111 -129 196 -120 205 12 13 74 21 116 16 25 -3 84 -20 132 -39z m-89 -405
c12 -6 50 -39 84 -72 60 -59 62 -62 45 -80 -15 -16 -17 -42 -17 -186 l0 -167
42 -86 c96 -193 249 -350 440 -450 281 -147 374 -171 658 -172 225 -1 313 21
470 119 64 40 77 45 96 35 12 -7 53 -23 92 -36 39 -13 81 -31 95 -40 l24 -16
-24 -25 c-12 -14 -48 -38 -78 -53 -30 -15 -63 -37 -73 -48 -17 -19 -34 -27
-142 -70 -102 -41 -437 -53 -665 -24 -125 16 -264 48 -360 83 -47 17 -98 35
-115 41 -16 6 -45 24 -63 40 -19 16 -62 42 -96 58 -68 32 -261 189 -271 220
-3 11 -21 32 -39 47 -47 40 -83 101 -126 219 -39 105 -39 104 -67 419 -5 60
12 150 42 223 16 36 17 37 48 21z m-327 -162 c146 -15 158 -22 152 -89 -3 -27
-8 -51 -12 -55 -4 -4 -27 -2 -51 5 -69 18 -448 26 -615 13 -148 -12 -416 -63
-565 -107 -44 -13 -100 -28 -125 -33 -25 -6 -83 -24 -130 -42 -47 -17 -123
-43 -170 -59 -155 -50 -315 -112 -350 -134 -19 -13 -56 -35 -82 -49 -25 -15
-68 -43 -95 -64 -26 -20 -57 -42 -68 -47 -11 -6 -87 -65 -168 -131 -81 -66
-169 -136 -195 -155 -61 -45 -300 -293 -334 -346 -14 -22 -61 -69 -104 -105
-43 -35 -89 -76 -103 -91 -14 -16 -62 -65 -107 -110 -44 -46 -107 -117 -139
-158 -65 -83 -134 -163 -198 -228 -23 -24 -62 -71 -87 -106 -25 -35 -74 -103
-109 -151 -35 -48 -82 -128 -104 -178 -22 -51 -51 -108 -63 -127 -13 -19 -36
-71 -53 -115 -16 -44 -43 -112 -60 -152 -17 -40 -31 -84 -31 -98 0 -14 -16
-65 -36 -113 -92 -219 -151 -430 -165 -585 -5 -59 -18 -163 -29 -230 -41 -248
-58 -509 -53 -822 3 -215 8 -301 19 -334 14 -43 13 -46 -12 -84 l-26 -40 75
-71 c86 -81 109 -121 111 -188 2 -59 27 -95 87 -125 97 -49 217 -96 279 -109
36 -8 94 -21 130 -29 96 -22 307 -40 455 -40 127 1 135 2 312 53 203 59 417
153 504 222 28 22 57 40 64 40 8 0 63 20 122 44 246 101 523 196 658 225 50
11 141 36 204 55 161 51 227 59 481 60 226 1 282 -4 513 -49 121 -23 131 -21
187 31 90 84 109 138 57 166 -12 6 -91 14 -177 19 -206 10 -501 63 -662 118
-32 11 -95 25 -140 31 -46 7 -123 22 -173 35 -49 13 -130 34 -180 46 -49 12
-153 41 -230 65 -77 23 -183 52 -235 63 -52 11 -135 30 -185 41 -49 11 -145
25 -212 32 -113 11 -127 10 -175 -7 -64 -22 -148 -72 -250 -147 -128 -95 -268
-169 -357 -189 -55 -12 -204 -14 -224 -3 -64 38 -194 251 -236 388 -51 167
-37 394 40 636 42 130 59 168 107 238 31 46 68 107 83 135 92 182 135 243 264
372 69 69 124 115 178 145 42 25 127 79 187 121 61 42 170 106 243 143 l132
67 237 39 c328 54 532 109 737 199 52 23 102 41 112 41 20 0 72 -57 66 -74 -5
-16 -50 -36 -141 -62 -45 -12 -110 -34 -146 -47 -36 -13 -72 -26 -80 -29 -8
-3 -37 -13 -65 -22 -122 -43 -242 -76 -400 -110 -336 -73 -452 -104 -491 -130
-22 -14 -70 -48 -109 -75 -38 -27 -97 -66 -130 -87 -126 -79 -252 -174 -290
-219 -22 -25 -76 -88 -121 -138 -88 -100 -137 -168 -149 -206 -4 -14 -21 -46
-36 -72 -16 -25 -29 -53 -29 -61 0 -8 -4 -18 -9 -23 -6 -6 -21 -46 -36 -90
-64 -198 -78 -306 -73 -560 5 -235 7 -241 101 -337 88 -90 125 -107 229 -110
52 -1 99 20 170 74 25 19 60 40 78 48 19 8 93 50 165 93 71 43 151 84 177 92
25 7 59 22 74 32 23 15 47 18 139 17 138 -1 237 -20 565 -104 73 -19 202 -42
308 -54 58 -7 164 -38 292 -86 203 -75 403 -113 720 -135 123 -8 212 -19 240
-29 40 -15 50 -15 112 -1 111 25 160 45 226 92 78 56 179 113 199 113 17 0
100 35 298 126 181 84 212 100 320 166 50 30 109 61 130 68 22 7 69 28 105 46
135 67 324 110 448 100 46 -3 92 -11 103 -16 18 -10 27 -40 11 -40 -4 0 -15
-21 -25 -46 -14 -39 -15 -51 -4 -73 19 -40 80 -65 170 -69 l79 -4 -4 28 c-3
30 -11 34 -117 63 -13 3 -29 14 -35 24 -15 25 8 37 48 26 17 -5 58 -14 91 -20
70 -12 258 -84 280 -106 13 -12 13 -18 3 -30 -13 -17 -50 -14 -163 11 -65 14
-85 12 -85 -11 0 -7 -11 -25 -25 -38 -31 -32 -109 -35 -146 -7 -13 11 -37 22
-54 26 -16 4 -48 27 -70 51 -34 37 -49 45 -105 56 -91 18 -177 14 -316 -16
-135 -29 -195 -54 -214 -90 -28 -53 31 -71 113 -35 63 28 227 61 248 50 9 -5
19 -26 22 -47 10 -60 48 -107 104 -127 61 -23 85 -49 77 -85 -17 -71 -71 -89
-196 -66 -120 22 -186 48 -225 91 -18 19 -38 34 -46 34 -8 0 -40 12 -72 26
-51 23 -65 26 -124 20 -86 -9 -248 -52 -297 -80 -44 -24 -53 -46 -29 -70 23
-23 59 -20 176 15 166 49 250 50 206 1 -9 -9 -20 -29 -26 -45 -9 -23 -7 -31 9
-47 27 -27 37 -25 74 14 l31 34 59 -24 c33 -13 65 -24 72 -24 17 0 154 -63
179 -83 15 -12 17 -19 9 -27 -23 -23 -80 -14 -156 23 -41 20 -81 37 -90 37
-22 0 -45 -30 -57 -76 -6 -23 -17 -47 -24 -52 -7 -6 -74 -15 -149 -21 -75 -5
-149 -15 -165 -23 -15 -7 -37 -31 -48 -53 -19 -36 -28 -43 -100 -67 -100 -34
-150 -35 -259 -3 -47 14 -90 25 -95 25 -5 0 -28 -16 -51 -35 -22 -19 -56 -39
-75 -44 -19 -5 -54 -24 -79 -41 -24 -18 -66 -36 -93 -41 -66 -13 -245 -1 -323
21 -36 10 -105 21 -155 25 -49 3 -119 11 -154 17 -77 13 -450 -5 -606 -28 -55
-9 -127 -19 -160 -23 -33 -5 -76 -18 -95 -29 -19 -11 -57 -25 -84 -31 -27 -7
-61 -20 -75 -30 -47 -34 -215 -112 -271 -127 -30 -8 -102 -37 -160 -63 -58
-27 -154 -65 -215 -86 -60 -20 -120 -43 -132 -51 -12 -8 -27 -14 -34 -14 -6 0
-23 -8 -37 -18 -47 -33 -234 -96 -357 -121 -27 -5 -82 -21 -121 -35 -85 -29
-280 -56 -408 -56 -121 0 -299 17 -356 34 -25 8 -69 19 -99 25 -60 13 -158 64
-230 121 -59 47 -101 58 -123 33 -32 -37 -107 -180 -122 -233 -19 -68 -36
-283 -36 -448 0 -157 25 -347 55 -429 14 -35 29 -105 35 -156 6 -51 15 -125
20 -164 5 -40 15 -94 23 -120 21 -64 25 -90 37 -207 7 -67 17 -109 30 -131 11
-18 26 -68 34 -111 28 -156 150 -405 265 -538 22 -25 68 -87 102 -136 34 -50
81 -112 104 -138 64 -73 87 -117 112 -220 25 -104 21 -122 -24 -122 -14 0 -50
20 -83 45 -48 37 -75 70 -138 173 -125 201 -208 352 -313 567 -201 415 -345
821 -448 1267 -63 273 -74 392 -68 723 5 291 17 398 56 505 39 109 111 274
128 292 22 24 21 66 0 198 -51 308 -50 351 43 1064 60 458 69 502 186 861 123
377 224 579 447 900 145 208 216 293 492 590 72 77 186 205 255 285 162 190
394 426 495 505 172 134 403 282 635 408 285 153 757 310 1047 347 91 12 616
3 769 -13z m2692 -214 c-2 -12 -12 -18 -28 -18 -16 0 -26 6 -28 18 -3 13 3 17
28 17 25 0 31 -4 28 -17z m-2973 -14 c88 -6 222 -11 297 -11 l137 0 6 -27 c12
-54 -28 -107 -128 -171 -73 -47 -158 -157 -201 -263 -16 -37 -32 -70 -37 -72
-26 -17 -51 -174 -75 -465 -22 -282 -19 -272 -135 -415 -96 -119 -185 -151
-333 -120 -127 26 -185 53 -244 109 -44 44 -54 59 -62 105 -12 66 -2 109 41
174 39 60 74 87 110 87 24 0 35 -9 63 -53 43 -67 53 -75 137 -109 67 -27 71
-27 125 -13 74 19 108 46 140 110 40 82 44 167 11 238 -30 65 -178 225 -245
264 -41 25 -46 25 -195 21 l-152 -5 -120 -47 c-66 -26 -129 -50 -139 -53 -39
-12 -163 -147 -197 -213 -50 -100 -59 -149 -59 -310 l1 -145 43 -85 c68 -136
85 -162 140 -220 109 -114 156 -172 156 -191 0 -14 -16 -27 -57 -45 -79 -35
-289 -114 -305 -114 -7 0 -40 -9 -74 -19 -33 -11 -126 -29 -206 -40 -80 -12
-166 -25 -192 -30 -26 -5 -76 -6 -110 -4 -49 4 -72 1 -97 -12 -19 -10 -77 -39
-129 -66 -127 -65 -165 -88 -268 -162 -48 -34 -127 -87 -177 -116 -156 -94
-204 -130 -247 -189 -23 -31 -61 -77 -84 -102 -23 -25 -50 -63 -61 -85 -29
-59 -113 -208 -127 -225 -18 -22 -80 -128 -109 -185 -31 -64 -96 -241 -135
-370 -28 -93 -30 -109 -28 -235 2 -113 7 -150 30 -223 14 -49 34 -103 43 -120
28 -52 62 -140 69 -174 7 -38 48 -83 158 -172 l78 -64 91 7 c50 4 113 12 141
18 80 17 251 111 367 201 58 46 140 100 182 120 68 33 84 37 154 37 117 -1
536 -88 673 -141 131 -50 479 -132 633 -149 53 -6 118 -17 144 -24 57 -16 151
-39 248 -62 39 -9 97 -22 130 -30 33 -8 111 -17 173 -20 62 -4 115 -10 117
-14 3 -4 -3 -14 -12 -21 -26 -22 -152 -14 -311 20 -131 29 -158 31 -335 31
-228 0 -326 -14 -499 -70 -68 -21 -157 -44 -198 -51 -41 -6 -98 -22 -126 -35
-28 -13 -57 -24 -66 -24 -8 0 -36 -11 -64 -24 -27 -13 -78 -29 -114 -36 -57
-10 -202 -63 -410 -148 -39 -15 -82 -43 -107 -68 -24 -23 -57 -47 -75 -53 -18
-7 -55 -23 -83 -35 -27 -13 -79 -37 -115 -54 -36 -17 -85 -36 -110 -42 -25 -6
-85 -25 -135 -42 -88 -30 -93 -30 -240 -25 -82 4 -188 13 -235 21 -209 37
-255 46 -328 66 -42 12 -106 36 -142 53 l-65 32 -60 122 c-34 68 -74 136 -90
153 -41 43 -55 121 -63 365 -17 493 -11 615 48 975 10 63 21 152 24 197 9 117
49 285 91 383 20 47 74 191 120 320 45 129 97 266 114 304 30 66 44 91 146
261 66 112 183 265 211 277 13 6 26 18 29 27 23 74 502 606 610 678 62 41 95
75 95 95 0 11 22 43 48 71 26 29 58 68 71 87 13 19 50 55 83 80 32 25 92 72
132 106 40 33 88 71 107 84 19 13 52 40 74 60 59 53 157 117 253 166 47 24 92
50 101 58 16 14 182 74 336 122 44 13 103 33 130 44 98 38 516 140 576 140 20
0 70 7 110 15 102 20 129 23 169 19 19 -2 107 -9 195 -15z m3311 -50 c78 -30
83 -48 52 -194 -6 -27 -17 -62 -24 -77 -15 -28 -27 -32 -160 -43 l-71 -7 -48
58 -47 59 5 69 c5 69 5 71 56 119 l52 50 65 -7 c36 -4 90 -16 120 -27z m-2854
-206 c9 -10 41 -67 71 -128 72 -144 135 -237 208 -306 46 -44 59 -63 59 -86 0
-36 -76 -162 -129 -213 -21 -20 -54 -61 -74 -91 -20 -30 -74 -93 -120 -141
-108 -111 -157 -127 -172 -56 -4 18 -22 70 -40 114 -77 190 -87 585 -19 717
38 73 121 169 169 195 27 15 29 15 47 -5z m-923 -462 c50 -7 58 -13 136 -92
71 -72 86 -93 100 -141 20 -70 8 -126 -35 -170 -32 -31 -82 -37 -152 -17 -43
11 -47 30 -27 100 20 66 3 73 -171 69 -53 -1 -91 -23 -149 -87 -98 -106 -132
-230 -91 -333 30 -77 61 -113 127 -151 32 -18 65 -38 74 -45 8 -8 73 -28 145
-45 164 -39 233 -37 291 10 21 17 70 54 108 83 65 49 74 61 123 158 55 109 60
130 78 344 6 75 12 74 37 -9 47 -151 58 -195 52 -205 -4 -6 6 -32 21 -58 39
-66 44 -197 15 -427 -11 -93 -25 -267 -31 -385 -5 -118 -13 -245 -16 -282 l-6
-68 -43 0 c-63 0 -279 -39 -365 -65 -41 -13 -108 -28 -148 -34 -41 -7 -87 -18
-102 -26 -48 -25 -54 -9 -74 201 -8 78 -21 154 -29 170 -8 16 -20 52 -26 79
-7 28 -18 57 -25 65 -7 8 -25 35 -39 60 -115 192 -208 323 -279 392 -72 69
-153 228 -166 325 -12 88 4 213 39 305 26 66 37 83 70 104 22 14 42 31 45 38
10 25 119 75 240 110 121 36 175 41 273 27z m5629 -137 c97 -2 106 -5 170 -40
37 -20 90 -54 117 -74 28 -21 68 -47 90 -58 22 -11 74 -54 115 -97 44 -45 108
-96 156 -125 74 -45 136 -92 282 -215 66 -56 171 -176 269 -310 41 -55 98
-127 128 -160 53 -59 108 -134 182 -248 21 -32 76 -111 121 -175 92 -128 123
-183 159 -282 63 -170 85 -226 143 -365 34 -82 71 -172 82 -200 10 -27 28 -68
39 -91 10 -22 19 -47 19 -56 0 -8 12 -37 26 -64 15 -27 48 -112 74 -189 27
-77 58 -162 69 -188 12 -27 21 -63 21 -82 0 -18 7 -52 16 -76 9 -24 20 -80 25
-124 5 -44 20 -123 33 -175 35 -137 54 -242 66 -350 6 -52 15 -109 21 -127 5
-17 10 -62 9 -100 -1 -37 3 -131 9 -208 25 -336 -46 -809 -164 -1104 -19 -49
-35 -93 -35 -98 0 -19 -135 -190 -209 -264 -66 -66 -118 -101 -183 -122 -9 -3
-27 -25 -38 -48 l-22 -42 -49 6 c-28 4 -89 19 -137 36 -48 16 -127 39 -177 51
-49 12 -104 30 -121 40 -43 24 -109 32 -179 20 -33 -6 -87 -15 -120 -21 -33
-5 -88 -16 -122 -25 -46 -11 -68 -12 -83 -4 -26 14 -67 85 -95 165 -12 35 -27
70 -33 77 -29 36 -87 206 -103 301 -4 29 -13 79 -19 112 -18 93 -6 264 24 365
14 47 34 96 44 110 10 14 58 52 106 85 l88 60 93 0 c88 0 96 -2 136 -30 54
-38 76 -70 84 -120 5 -37 2 -45 -40 -95 -73 -89 -88 -131 -82 -225 6 -99 30
-170 69 -212 70 -73 246 -115 333 -79 90 38 184 107 258 190 69 77 78 93 103
173 35 114 46 293 20 347 -9 19 -16 47 -16 63 -1 41 -23 77 -138 221 -63 81
-114 134 -132 142 -16 7 -35 19 -41 27 -7 8 -29 23 -48 34 -20 11 -58 34 -86
51 -91 57 -225 126 -254 133 -42 9 -76 48 -91 101 -34 122 40 550 130 750 26
59 68 104 97 104 51 0 92 54 108 142 11 56 -10 68 -111 68 -46 0 -84 4 -84 8
0 5 43 28 97 52 105 48 146 77 168 121 33 63 6 95 -72 86 -31 -3 -48 0 -58 10
-18 17 -18 22 -16 133 1 47 -3 118 -8 157 -12 79 -75 311 -96 352 -7 15 -23
58 -35 96 -31 97 -141 324 -204 420 -120 183 -237 346 -253 352 -9 3 -57 54
-107 114 -77 89 -95 117 -109 167 -24 88 -42 105 -114 110 -33 2 -107 -1 -164
-8 -57 -7 -158 -15 -224 -19 -66 -4 -130 -13 -142 -20 -29 -15 -37 -48 -25
-97 23 -87 23 -138 2 -239 -19 -86 -22 -140 -24 -380 -2 -185 -7 -295 -15
-324 -10 -34 -34 -67 -98 -135 -47 -50 -93 -107 -103 -126 -10 -19 -36 -55
-57 -80 -22 -25 -53 -65 -68 -90 -101 -162 -354 -430 -570 -604 -33 -27 -147
-129 -252 -228 -192 -179 -224 -200 -231 -152 -2 14 16 38 60 79 157 146 392
404 456 500 119 179 116 168 108 379 -4 99 -11 366 -16 591 -5 226 -15 457
-22 515 -7 58 -13 182 -12 275 1 145 4 178 21 225 12 30 29 78 39 105 32 84
218 257 331 306 54 23 169 39 296 40 56 1 127 5 157 9 30 5 73 6 95 3 22 -3
86 -7 143 -9z m-4191 -11 c51 -23 73 -42 73 -64 0 -28 -75 -193 -109 -241 -17
-24 -36 -68 -42 -98 -6 -30 -22 -81 -35 -112 -21 -49 -24 -74 -24 -175 -1
-233 41 -454 113 -598 14 -27 30 -77 37 -110 6 -33 18 -80 25 -105 8 -25 22
-106 30 -180 18 -152 21 -169 46 -225 11 -23 19 -64 19 -95 0 -31 7 -80 15
-110 18 -63 18 -60 9 -121 -4 -28 -2 -54 5 -68 15 -28 -9 -166 -46 -261 -14
-36 -33 -88 -43 -115 -28 -81 -80 -146 -220 -278 -157 -148 -201 -184 -240
-201 -25 -10 -72 -30 -104 -45 -55 -24 -68 -26 -205 -25 -160 0 -239 16 -286
57 l-27 22 22 55 c11 30 27 69 35 85 7 17 27 76 45 132 17 56 38 107 47 114
10 9 62 15 147 19 125 5 134 7 196 40 118 64 200 168 217 274 3 23 15 59 26
81 17 33 18 49 11 105 -4 36 -8 99 -8 140 -1 42 -7 85 -14 98 -8 15 -11 38 -7
65 6 40 3 45 -45 102 -28 33 -71 94 -95 135 -24 41 -58 94 -75 118 -38 52 -88
169 -96 226 -4 27 -18 53 -39 76 -32 34 -33 37 -24 85 12 71 41 350 49 480 4
61 10 118 14 127 4 10 38 42 74 72 128 104 250 244 392 449 66 94 74 98 137
70z m1583 -158 c6 -8 22 -17 33 -21 12 -4 80 -38 151 -76 110 -59 140 -70 204
-78 147 -19 324 -67 363 -99 19 -15 21 -24 15 -64 -9 -59 -39 -95 -108 -130
-47 -24 -65 -27 -149 -27 -81 0 -100 3 -122 20 -14 11 -37 20 -51 20 -31 0
-85 26 -176 85 -36 23 -108 63 -160 90 -52 26 -102 51 -110 56 -8 4 -66 33
-127 63 -62 31 -113 60 -113 65 0 18 29 31 98 46 40 8 94 26 120 39 53 28 114
33 132 11z m-808 -208 c30 -25 88 -131 88 -162 0 -11 9 -66 21 -121 23 -109
20 -158 -9 -152 -22 4 -76 140 -108 273 -14 55 -29 112 -35 127 -11 28 -7 58
8 58 4 -1 20 -11 35 -23z m-571 -23 c17 -8 38 -32 48 -52 9 -20 35 -64 56 -98
22 -33 58 -97 79 -142 l40 -82 -22 -46 c-27 -55 -18 -74 33 -74 47 0 64 8 80
41 20 38 19 57 -7 104 -11 22 -38 79 -59 127 -20 48 -52 108 -70 133 l-34 47
23 19 c42 33 145 -7 199 -78 15 -20 51 -59 79 -87 51 -51 114 -160 114 -196 0
-32 48 -151 90 -220 21 -36 73 -100 117 -144 81 -81 113 -122 113 -143 0 -21
-25 -15 -138 31 -59 24 -129 47 -157 52 -27 4 -70 19 -95 34 -25 15 -57 30
-72 34 -15 3 -55 30 -89 59 -34 28 -85 69 -114 89 -46 32 -57 48 -84 111 -16
40 -35 96 -41 123 -18 83 -86 237 -136 309 -19 27 -18 65 1 65 9 0 30 -7 46
-16z m914 -168 c16 -7 46 -31 66 -53 33 -37 40 -56 73 -194 20 -85 43 -172 50
-194 8 -22 22 -65 30 -95 35 -118 169 -338 243 -399 25 -21 47 -31 63 -29 21
3 25 9 28 41 3 35 -2 44 -66 110 -47 49 -86 103 -120 168 -56 104 -66 149 -32
149 10 0 24 9 30 21 17 30 16 109 0 147 -13 29 -13 34 0 43 39 26 156 -24 203
-86 17 -24 41 -122 51 -208 6 -61 29 -97 61 -97 43 0 146 -80 197 -154 44 -64
46 -70 41 -120 -3 -31 -1 -61 6 -74 14 -26 128 -108 162 -117 14 -3 57 -38 95
-77 38 -38 94 -86 124 -105 63 -41 324 -298 364 -359 33 -51 29 -64 -51 -165
-96 -119 -117 -139 -152 -139 -27 0 -33 6 -52 51 -15 34 -34 58 -58 73 -20 13
-79 65 -131 117 -52 52 -121 112 -152 133 -32 22 -65 51 -74 64 -23 35 -122
136 -161 164 -18 13 -69 55 -115 94 -46 39 -126 100 -178 134 -52 35 -102 71
-110 80 -8 10 -49 35 -90 56 -79 40 -150 92 -150 110 0 6 9 19 20 29 11 10 20
25 20 33 0 16 -101 115 -168 164 -24 18 -52 48 -64 67 -12 20 -40 57 -63 82
-65 70 -135 169 -135 190 0 14 7 19 25 19 30 0 62 30 71 66 7 25 -8 86 -40
169 -8 22 -15 57 -16 79 l0 39 62 -7 c34 -4 76 -13 93 -20z m237 -63 c21 -25
40 -171 32 -243 -12 -106 -25 -75 -59 140 -8 52 -15 101 -15 108 0 18 25 15
42 -5z m3015 -256 c27 -15 227 -212 273 -268 19 -24 49 -66 65 -94 17 -27 53
-77 80 -110 72 -89 125 -175 125 -204 0 -48 -72 -211 -130 -296 -54 -79 -113
-201 -126 -260 -15 -72 -70 -192 -93 -204 -9 -4 -68 -11 -131 -15 -63 -3 -137
-13 -164 -21 -87 -27 -82 -35 -89 143 -4 114 -10 170 -22 200 -13 33 -15 49
-7 70 6 15 13 61 15 102 3 60 12 91 40 151 34 73 37 84 42 210 4 82 1 205 -8
319 -14 187 -13 255 5 278 13 15 96 15 125 -1z m-3185 -483 c69 -46 83 -64 49
-64 -22 0 -106 63 -121 90 -16 29 -3 25 72 -26z m-662 -220 c27 -23 34 -25 56
-15 31 14 96 14 149 0 22 -6 74 -19 115 -28 41 -10 111 -33 155 -51 44 -17
107 -35 140 -38 69 -6 169 -50 248 -109 29 -22 69 -52 90 -67 20 -15 44 -40
52 -56 8 -16 63 -66 122 -111 60 -45 111 -85 115 -88 4 -3 19 -32 33 -64 l25
-58 -39 -16 c-63 -25 -79 -89 -41 -164 12 -22 39 -52 61 -67 22 -15 52 -37 67
-49 l27 -21 -29 -31 c-34 -36 -78 -41 -132 -15 -45 22 -51 34 -65 144 -10 79
-20 109 -64 199 -56 113 -84 145 -180 206 -33 21 -73 52 -90 68 -38 37 -268
196 -351 242 -71 40 -92 43 -125 16 -35 -29 -19 -47 94 -107 114 -61 197 -120
389 -275 148 -120 160 -132 171 -162 5 -14 -1 -21 -27 -32 -38 -16 -44 -28
-48 -98 -2 -53 24 -100 59 -105 17 -3 21 4 25 43 3 25 8 49 12 52 14 14 36
-24 61 -105 27 -87 36 -109 81 -192 27 -51 31 -85 9 -94 -10 -4 -25 9 -45 37
-16 23 -42 59 -57 80 -15 21 -34 56 -43 79 -21 56 -38 65 -95 50 -42 -11 -50
-10 -108 17 -69 31 -92 53 -134 126 -18 31 -37 51 -50 53 -36 5 -44 27 -53
131 -14 158 -32 188 -169 278 -140 91 -253 145 -298 141 -33 -3 -38 -7 -41
-30 -5 -43 14 -65 75 -88 32 -12 65 -28 73 -35 8 -7 29 -17 45 -21 17 -4 58
-23 93 -42 58 -32 75 -53 52 -67 -20 -12 -9 -59 24 -109 55 -83 79 -136 102
-226 19 -72 20 -87 8 -99 -22 -24 -51 12 -64 78 -29 146 -54 201 -91 201 -14
0 -19 -10 -21 -47 l-3 -48 -50 1 c-65 2 -170 29 -204 53 -15 11 -35 44 -49 80
-32 83 -62 116 -144 157 -56 28 -81 35 -122 34 -28 -1 -56 -1 -63 -1 -7 1 -15
18 -18 39 -23 134 -38 214 -50 262 -21 81 -26 123 -16 138 4 8 41 18 82 23 41
5 103 13 139 18 97 13 96 13 130 -15z m-1068 -121 c15 -15 28 -35 28 -44 0
-20 -16 -23 -210 -39 -69 -6 -136 -13 -150 -15 -14 -3 -75 -11 -136 -19 -127
-17 -221 -46 -362 -112 -100 -46 -217 -84 -262 -84 -14 0 -31 -5 -37 -11 -16
-16 -45 -4 -83 36 -21 22 -30 39 -24 44 5 6 59 26 119 47 61 20 117 40 127 45
20 11 436 111 578 139 122 24 228 37 319 39 58 1 68 -2 93 -26z m5552 -45 c30
-84 25 -115 -29 -174 -24 -27 -51 -62 -58 -79 -75 -157 -97 -206 -108 -245
-23 -83 -78 -114 -128 -72 l-22 17 49 95 c27 52 55 113 62 135 7 22 16 45 21
51 13 16 63 106 119 217 28 53 57 97 64 97 8 0 21 -19 30 -42z m-7498 15 c26
-27 54 -94 54 -133 0 -46 25 -82 53 -78 19 3 22 11 25 56 l3 52 39 0 c53 0 68
-8 87 -44 9 -17 30 -49 47 -71 30 -38 51 -69 59 -90 3 -5 10 -50 16 -99 7 -49
19 -105 27 -124 21 -51 107 -153 167 -197 28 -22 98 -84 153 -137 56 -54 108
-98 116 -98 8 0 22 6 32 13 15 11 16 18 8 33 -5 11 -95 107 -200 213 l-190
195 -5 55 c-2 31 -15 102 -28 159 -17 75 -20 108 -13 119 19 31 33 25 44 -19
28 -110 41 -147 58 -168 l18 -22 44 22 c42 21 45 22 74 6 56 -31 153 -166 232
-323 l75 -148 -11 -85 c-28 -219 -44 -280 -81 -303 -12 -8 -22 -5 -40 12 -13
13 -35 29 -49 36 -25 12 -314 122 -439 165 -35 12 -87 36 -115 53 -28 16 -85
45 -126 64 -65 29 -154 82 -266 157 -57 38 -184 243 -184 297 0 41 -67 202
-102 246 -48 60 -81 143 -68 171 10 23 10 23 41 5 20 -12 43 -41 65 -85 28
-57 38 -68 59 -68 20 0 25 5 25 26 0 15 -9 41 -19 58 -29 46 -16 58 55 50 109
-13 148 -83 164 -295 10 -137 24 -170 124 -296 77 -97 127 -136 256 -198 52
-26 120 -59 150 -75 30 -15 66 -31 80 -35 14 -4 69 -28 123 -53 82 -38 100
-43 108 -31 13 21 12 25 -23 64 -42 48 -173 113 -383 190 -27 10 -70 37 -95
60 -25 22 -57 49 -72 58 -80 50 -142 178 -158 327 -4 41 -18 109 -29 150 -12
41 -24 99 -28 128 -5 43 -3 52 10 52 9 0 23 -8 33 -17z m2009 -131 c-6 -5 -53
-19 -105 -32 -52 -12 -135 -35 -185 -51 -49 -15 -157 -44 -240 -64 -156 -38
-282 -85 -422 -161 -46 -24 -94 -44 -107 -44 -27 0 -96 59 -96 82 0 16 23 30
90 53 119 42 151 55 226 93 92 46 168 68 304 87 52 8 113 20 135 28 46 16 417
24 400 9z m4549 -130 c4 -26 11 -101 16 -167 7 -96 14 -129 34 -167 27 -52 28
-52 -34 -63 -108 -19 -109 -19 -121 11 -9 22 -8 54 0 127 9 76 9 105 0 131
-11 31 -10 39 21 92 37 68 59 96 70 89 5 -3 11 -26 14 -53z m-4474 15 c0 -25
-24 -36 -119 -57 -53 -12 -134 -32 -181 -45 -47 -13 -132 -36 -190 -51 -96
-25 -312 -113 -363 -149 -12 -8 -30 -15 -40 -15 -10 0 -48 -18 -84 -40 -76
-46 -83 -47 -107 -21 -35 38 -14 59 129 133 114 59 224 97 410 141 110 27 171
47 236 76 79 36 91 38 212 40 74 1 97 -2 97 -12z m-430 -279 c-1 -93 -56 -320
-105 -428 -83 -185 -104 -240 -125 -325 -10 -46 -44 -139 -73 -207 -30 -68
-57 -145 -61 -171 -10 -84 -18 -90 -95 -84 -83 8 -248 34 -261 42 -16 10 -11
78 9 138 11 31 29 101 41 154 11 54 34 139 50 190 18 57 38 159 54 275 13 100
29 195 35 211 13 32 84 80 155 103 28 9 96 39 150 67 104 52 165 75 204 76 19
1 22 -4 22 -41z m2724 -114 c32 -12 216 -259 216 -290 0 -28 -34 -13 -91 41
-32 30 -65 55 -73 55 -9 0 -16 4 -16 8 0 5 -20 32 -45 61 -34 40 -45 61 -45
86 0 24 5 35 18 38 9 3 18 5 19 6 1 0 8 -2 17 -5z m-4644 -69 c21 -22 22 -27
9 -39 -8 -8 -41 -24 -74 -36 -394 -144 -428 -155 -541 -180 -82 -17 -371 -63
-551 -87 l-43 -6 0 52 c0 57 23 91 63 91 12 0 106 2 209 5 172 4 198 8 325 40
76 19 166 46 199 60 34 14 106 37 160 51 55 14 119 36 144 49 58 30 72 30 100
0z m7609 -11 c140 -22 145 -25 149 -106 2 -42 0 -68 -6 -68 -6 0 -52 20 -103
45 -50 24 -108 47 -128 50 -20 4 -69 13 -109 21 -58 11 -93 12 -180 3 -135
-14 -171 -39 -122 -84 18 -16 36 -18 138 -16 131 2 213 -12 337 -57 l80 -28 5
-83 c5 -89 5 -89 86 -147 l29 -21 -79 -37 c-128 -59 -190 -48 -298 52 -40 37
-90 75 -111 85 -20 9 -54 25 -74 35 -20 9 -54 32 -76 49 -21 18 -60 39 -85 47
-26 7 -63 23 -82 34 -19 12 -64 26 -99 31 -72 12 -103 3 -128 -36 -14 -20 -13
-24 9 -46 19 -19 39 -26 95 -31 68 -7 201 -58 217 -84 3 -5 -8 -27 -24 -47
-17 -21 -30 -44 -30 -52 0 -14 56 -71 98 -100 28 -19 28 -49 1 -64 -16 -8 -37
-8 -82 1 -74 14 -129 43 -222 115 -38 30 -77 55 -85 55 -9 0 -45 -8 -81 -18
-59 -17 -67 -17 -90 -3 -50 31 -229 165 -229 172 0 4 29 34 65 68 72 66 197
145 259 162 22 6 49 17 60 24 12 7 39 17 61 20 22 4 99 20 170 37 208 48 444
56 664 22z m519 -86 c18 -15 0 -32 -48 -47 -43 -13 -65 -41 -55 -71 6 -19 1
-20 -74 -20 -83 0 -137 13 -126 30 3 5 37 10 75 10 48 0 73 5 84 15 32 32 -10
65 -83 65 -44 0 -55 8 -39 28 10 11 34 13 133 7 66 -4 126 -12 133 -17z
m-7918 -95 c89 -62 234 -138 308 -159 28 -9 52 -20 52 -26 0 -6 -10 -25 -23
-42 -13 -17 -42 -63 -65 -103 -45 -77 -90 -120 -163 -157 -26 -12 -63 -33 -83
-46 l-38 -23 -91 31 c-51 17 -112 34 -136 38 -24 3 -59 13 -78 20 -27 12 -45
12 -86 4 -29 -5 -78 -15 -110 -20 -82 -15 -163 -47 -202 -81 -18 -16 -68 -47
-111 -69 -77 -40 -108 -58 -248 -148 -125 -80 -166 -82 -242 -10 -30 28 -63
65 -73 82 -25 42 -43 175 -45 331 l-1 130 40 7 c22 3 101 14 175 23 181 22
245 33 310 52 30 8 89 24 130 34 41 10 122 34 180 54 58 19 124 40 148 45 23
6 76 26 116 45 91 44 189 66 231 52 16 -6 63 -34 105 -64z m5911 -131 c14 -9
39 -29 55 -44 94 -86 144 -125 282 -217 108 -72 152 -107 152 -120 0 -84 -70
-441 -100 -508 -22 -49 -45 -56 -53 -15 -5 26 -27 48 -282 291 -115 109 -269
234 -350 284 -38 23 -70 49 -70 57 0 8 43 47 95 86 52 40 122 101 155 137 33
35 67 65 75 66 8 0 27 -7 41 -17z m1947 -8 c12 -4 22 -10 22 -14 0 -12 -90
-47 -157 -61 -56 -11 -66 -11 -104 6 -48 22 -69 40 -69 61 0 11 26 14 143 14
78 0 152 -3 165 -6z m-7310 -106 c25 -25 11 -48 -55 -97 -38 -27 -76 -63 -86
-80 -10 -17 -26 -31 -36 -31 -20 0 -77 -57 -107 -108 -10 -18 -27 -35 -37 -38
-24 -8 -77 14 -77 32 0 8 25 30 54 49 65 41 120 103 161 182 17 33 45 67 64
80 37 25 99 31 119 11z m6447 -48 c40 -26 126 -131 123 -150 -4 -21 -35 -24
-62 -6 -20 13 -94 102 -120 144 -9 14 0 32 17 32 7 0 26 -9 42 -20z m775 -25
c0 -9 -10 -34 -21 -57 -45 -88 -118 -420 -125 -568 -8 -166 -12 -190 -35 -190
-25 0 -98 66 -105 95 -3 13 0 33 6 45 6 12 16 91 21 175 8 140 12 164 48 267
37 109 78 194 109 231 20 23 102 24 102 2z m-1200 -159 c14 -27 11 -63 -18
-261 -39 -257 -114 -616 -142 -682 -12 -30 -42 -29 -76 0 l-27 24 13 64 c20
100 87 371 100 404 27 69 71 254 86 353 8 59 17 113 19 119 6 18 30 6 45 -21z
m-2999 -112 c19 -13 39 -24 45 -24 5 0 48 -28 96 -62 47 -35 100 -71 117 -80
36 -20 39 -33 11 -48 -35 -19 -151 45 -263 144 -92 82 -113 115 -64 100 12 -3
38 -17 58 -30z m3226 15 c24 -21 11 -82 -50 -235 -30 -76 -80 -202 -110 -279
-30 -77 -67 -165 -81 -195 -14 -30 -26 -65 -26 -77 0 -12 -5 -25 -11 -29 -25
-15 -27 16 -4 96 90 322 120 464 141 660 4 36 9 69 12 74 7 12 110 0 129 -15z
m211 -29 c-3 -32 -15 -64 -33 -90 -15 -22 -33 -65 -40 -97 -8 -32 -20 -76 -29
-98 -8 -22 -15 -47 -16 -56 0 -9 -9 -28 -20 -42 -11 -14 -20 -32 -20 -40 0
-24 -217 -461 -239 -481 -23 -21 -51 -15 -51 11 0 26 36 136 59 182 11 21 34
75 51 118 17 43 40 96 50 118 33 69 111 265 146 370 37 107 74 155 122 155 23
0 24 -2 20 -50z m-1259 -82 c31 -29 73 -67 93 -84 36 -30 37 -33 27 -69 -6
-20 -28 -70 -50 -111 -48 -91 -51 -138 -13 -210 14 -27 39 -74 55 -104 16 -30
29 -60 29 -67 0 -17 77 -80 140 -114 47 -26 224 -80 313 -96 15 -3 62 -25 105
-49 42 -24 85 -44 95 -44 31 0 130 -39 153 -61 12 -11 49 -29 82 -39 117 -36
188 -105 270 -259 36 -68 48 -81 82 -95 47 -19 49 -33 26 -155 -12 -63 -12
-87 0 -170 25 -169 62 -299 115 -403 46 -92 60 -138 40 -138 -11 0 -89 67
-186 161 -44 42 -105 92 -135 112 -30 19 -95 71 -143 116 -48 45 -107 95 -130
112 -23 16 -95 80 -161 142 -106 100 -288 247 -307 247 -3 0 -68 41 -144 90
-76 50 -141 90 -146 90 -13 0 -226 127 -299 178 -35 26 -86 58 -111 72 -73 40
-144 135 -173 234 -31 101 -66 266 -66 306 0 43 22 81 73 126 27 25 47 54 55
79 13 45 61 111 143 197 73 76 92 77 168 6z m1354 -170 c12 -6 53 -40 92 -75
38 -34 72 -63 75 -63 3 0 49 -49 102 -108 53 -59 107 -113 120 -119 12 -7 107
-45 210 -86 139 -56 205 -88 255 -125 38 -27 79 -55 93 -62 46 -24 231 -214
282 -290 58 -87 78 -152 78 -253 0 -79 -29 -208 -61 -274 -11 -23 -49 -69 -84
-101 -74 -69 -129 -89 -226 -78 -113 11 -148 44 -159 148 -9 81 1 149 28 190
21 33 96 88 118 88 12 0 14 6 9 29 -3 17 -1 39 5 51 13 24 -12 89 -51 130 -34
36 -139 98 -195 115 -178 53 -307 10 -490 -167 -50 -48 -94 -88 -97 -88 -3 0
-25 33 -48 73 -23 39 -58 97 -78 127 -55 83 -216 275 -266 317 -53 44 -54 37
20 188 76 157 119 257 151 358 28 87 28 87 62 87 18 0 43 -5 55 -12z m-5953
-616 c0 -10 -20 -63 -45 -118 -25 -54 -45 -112 -45 -129 0 -16 -14 -82 -31
-145 -17 -63 -34 -133 -39 -155 -5 -22 -15 -65 -23 -95 -8 -30 -24 -109 -37
-175 -12 -66 -28 -138 -35 -160 -8 -22 -19 -71 -26 -110 -7 -38 -27 -115 -44
-170 -32 -97 -34 -100 -70 -113 -21 -7 -56 -26 -78 -42 -37 -27 -48 -30 -120
-30 -71 0 -86 -3 -136 -32 -31 -18 -78 -56 -104 -84 -59 -65 -124 -99 -174
-91 -45 8 -59 20 -89 79 -31 60 -30 79 3 131 15 23 39 67 53 97 35 71 110 150
145 150 31 0 31 -5 0 -46 -40 -52 -66 -123 -63 -168 3 -40 4 -41 43 -44 35 -3
47 3 105 50 36 30 95 75 132 101 48 34 72 59 88 93 17 35 32 50 59 60 62 25
86 41 99 71 8 15 29 53 47 83 18 30 43 91 55 135 12 44 31 97 41 117 11 21 26
69 34 108 8 39 28 104 44 145 30 77 27 95 -13 95 -26 0 -56 -28 -56 -52 0 -10
-8 -35 -19 -56 -23 -45 -91 -255 -91 -279 0 -28 -57 -143 -74 -149 -9 -3 -31
3 -49 15 -61 37 -92 29 -164 -42 -57 -58 -63 -67 -63 -105 0 -59 17 -54 89 25
l61 68 26 -26 26 -26 -52 -44 c-29 -24 -66 -64 -83 -89 -41 -60 -137 -160
-153 -160 -29 0 -22 21 26 81 27 34 50 70 50 80 0 10 -19 30 -42 46 -56 37
-70 66 -62 123 10 74 41 117 114 160 90 52 138 101 145 148 4 20 15 64 26 97
10 33 26 96 34 140 18 93 50 178 79 210 36 39 87 132 98 177 6 24 18 49 26 56
11 8 62 12 174 12 147 0 158 -1 158 -18z m294 -138 c12 -32 5 -112 -15 -172
-11 -34 -25 -62 -30 -62 -31 0 -43 186 -13 228 18 26 49 29 58 6z m1230 -76
c31 -50 46 -194 25 -241 -8 -17 -8 -35 0 -61 7 -27 7 -48 -2 -74 -17 -51 -44
-49 -74 3 -19 32 -23 50 -18 90 2 28 8 107 11 178 6 115 8 127 25 127 10 0 25
-10 33 -22z m-332 -83 c4 -33 12 -103 17 -155 6 -52 20 -122 30 -155 11 -33
16 -64 11 -69 -4 -4 -22 -5 -39 -1 -23 5 -37 17 -53 48 -19 36 -23 62 -26 178
-4 151 8 222 36 217 13 -2 19 -18 24 -63z m-750 -12 c14 -12 18 -31 18 -78 0
-54 -4 -67 -30 -100 -16 -21 -30 -44 -30 -51 0 -7 -21 -30 -46 -51 -58 -48
-118 -128 -132 -173 -6 -19 -23 -73 -38 -120 -15 -47 -27 -105 -26 -130 4
-117 18 -289 25 -296 4 -4 20 -3 35 2 34 12 40 47 41 224 1 132 27 275 52 291
16 9 46 -6 77 -38 35 -38 61 -27 108 47 59 94 88 122 121 118 23 -3 29 -10 40
-53 7 -27 10 -63 6 -80 -3 -16 -5 -49 -4 -72 2 -32 -2 -46 -19 -60 -26 -21
-88 -85 -187 -191 -75 -81 -143 -205 -143 -263 0 -16 -7 -47 -17 -70 -14 -35
-15 -52 -5 -111 12 -80 20 -93 55 -84 34 8 44 45 50 176 6 122 30 205 56 194
55 -23 70 -27 85 -21 19 7 21 38 5 82 -10 28 -8 36 28 92 37 59 119 137 134
127 13 -8 -3 -42 -37 -82 -20 -24 -34 -51 -34 -67 0 -37 27 -84 54 -95 18 -7
25 -19 30 -58 7 -54 -4 -95 -34 -127 -34 -36 -60 -113 -60 -177 0 -47 7 -75
31 -125 l31 -65 -24 -25 c-19 -21 -69 -56 -169 -118 -8 -5 -31 -20 -50 -32
-19 -13 -39 -23 -45 -23 -10 0 -85 94 -127 161 -29 45 -108 271 -127 366 -28
134 -43 369 -30 473 5 47 15 130 20 185 23 218 39 328 48 337 7 7 22 2 45 -16
68 -52 102 -25 120 96 5 40 15 79 20 86 13 17 57 15 79 -5z m1334 -133 c57
-32 80 -63 117 -160 20 -52 26 -91 32 -199 10 -198 29 -284 75 -336 10 -11 30
-38 44 -60 38 -57 297 -336 321 -345 35 -13 55 0 55 35 0 28 -18 53 -120 166
-67 74 -137 148 -156 166 -43 38 -42 63 2 75 44 11 69 64 60 127 -3 25 -7 55
-8 66 -4 29 39 31 119 4 58 -20 77 -33 130 -88 49 -51 64 -75 72 -111 19 -93
22 -155 8 -220 -20 -91 -10 -110 55 -110 42 0 54 -5 76 -29 54 -58 73 -91 103
-178 l32 -88 -42 -98 c-46 -106 -46 -120 -2 -174 67 -82 87 -117 175 -298 154
-316 225 -418 374 -536 40 -32 82 -70 94 -84 39 -50 194 -166 275 -206 45 -23
84 -47 87 -55 3 -8 31 -25 63 -39 32 -15 67 -34 78 -44 11 -10 45 -33 75 -51
30 -18 58 -38 62 -45 4 -7 53 -38 107 -69 55 -31 103 -61 106 -65 3 -5 31 -24
62 -41 37 -21 108 -84 203 -180 80 -80 160 -157 178 -169 57 -40 92 -142 92
-271 0 -39 8 -77 27 -121 25 -59 27 -75 27 -204 0 -160 -11 -228 -42 -272 -12
-17 -26 -43 -32 -57 -10 -27 -27 -50 -127 -171 -56 -68 -61 -81 -50 -137 10
-47 45 -68 132 -78 163 -20 408 54 595 178 46 32 103 66 125 78 82 43 306 174
350 206 26 18 79 58 118 89 40 30 99 72 132 92 33 20 120 85 193 144 74 59
154 122 178 139 25 17 61 50 81 73 19 23 94 86 167 140 137 103 285 249 341
336 18 28 40 57 49 64 8 7 36 54 62 104 25 51 61 117 79 147 18 30 63 107 100
170 37 63 88 144 114 180 26 36 60 88 76 115 16 28 47 79 70 115 23 36 52 86
64 111 11 25 32 56 45 68 l24 23 7 -44 c17 -113 -130 -498 -296 -776 -459
-767 -1264 -1499 -2084 -1893 -300 -144 -445 -187 -696 -209 -108 -9 -139 -8
-205 6 -43 8 -96 24 -118 35 -22 10 -45 19 -52 19 -7 0 -36 -19 -66 -43 -144
-117 -284 -207 -453 -292 -199 -101 -455 -206 -555 -229 -251 -57 -765 -126
-946 -126 -108 0 -535 37 -754 66 -264 35 -507 81 -800 154 -435 108 -562 151
-946 321 -282 124 -434 200 -572 286 -59 36 -129 80 -157 97 -80 50 -173 132
-443 388 -332 316 -443 449 -528 634 -50 108 -94 289 -101 414 l-5 105 50 43
c30 25 61 42 76 42 35 0 124 -19 169 -36 56 -21 212 -19 273 5 27 10 74 26
106 35 35 10 101 47 177 97 114 77 125 82 186 87 36 2 65 1 65 -4 0 -5 -32
-38 -71 -73 -97 -87 -189 -208 -189 -248 0 -11 -13 -50 -30 -85 -25 -53 -30
-75 -30 -138 1 -198 51 -350 116 -350 54 0 65 45 37 152 -25 97 -23 247 5 328
31 92 104 212 149 247 101 80 259 166 443 241 105 44 174 53 522 72 183 10
284 26 384 60 31 11 65 20 76 20 10 0 67 18 126 41 59 22 125 47 147 56 22 8
55 27 74 41 66 53 96 72 112 72 9 0 57 -46 105 -102 49 -57 131 -149 182 -205
55 -61 92 -110 90 -119 -2 -10 -35 -30 -83 -50 -60 -26 -94 -48 -140 -93 -33
-33 -71 -63 -85 -66 -26 -6 -115 -86 -181 -160 -19 -22 -55 -58 -80 -79 -70
-62 -220 -244 -241 -292 -41 -96 -126 -189 -206 -225 -35 -16 -77 -38 -92 -49
-15 -11 -70 -36 -121 -56 -80 -31 -110 -37 -201 -41 -83 -5 -118 -2 -157 11
-27 9 -57 16 -66 16 -35 0 -115 52 -158 102 -61 73 -64 80 -76 191 l-11 98 40
58 c58 86 77 98 169 106 137 12 208 -20 268 -119 26 -42 22 -58 -25 -109 -30
-31 -45 -33 -97 -11 -46 19 -84 15 -101 -11 -12 -18 -10 -26 16 -65 36 -54 47
-60 129 -71 l66 -8 53 52 c30 29 66 77 82 107 26 51 27 58 15 93 -17 51 -72
140 -118 192 -53 61 -105 84 -213 91 -81 6 -96 4 -164 -20 -95 -35 -127 -59
-178 -138 -58 -89 -71 -178 -48 -311 22 -118 52 -184 112 -241 57 -55 227
-142 303 -156 69 -13 194 -12 249 0 41 10 226 84 338 135 64 29 157 115 224
206 29 38 59 69 67 69 8 0 122 -106 252 -236 130 -129 259 -257 287 -284 78
-75 279 -236 345 -276 80 -48 243 -111 326 -125 88 -14 483 -113 558 -139 74
-25 315 -29 380 -5 22 8 63 14 91 15 29 0 81 9 117 20 36 11 85 24 109 29 280
59 566 170 639 247 22 23 28 24 89 18 53 -5 76 -2 122 15 74 28 101 51 127
106 26 56 27 95 0 170 -22 66 -76 129 -167 196 -29 22 -74 59 -101 82 -26 23
-107 91 -179 150 -126 104 -172 155 -172 191 0 20 -39 101 -67 141 -12 17 -39
89 -59 160 -20 72 -66 202 -101 290 -36 88 -84 210 -108 270 -23 61 -61 157
-84 215 -22 58 -41 113 -41 123 0 10 -9 30 -20 45 -10 15 -42 96 -69 180 -28
85 -69 194 -91 243 -39 83 -47 127 -26 132 5 1 37 -51 72 -116 35 -65 76 -135
91 -155 15 -20 50 -75 77 -122 26 -47 74 -123 105 -168 160 -239 178 -260 233
-288 27 -14 67 -41 90 -62 47 -43 159 -124 338 -246 165 -112 412 -281 486
-332 94 -66 259 -220 313 -292 78 -104 114 -198 119 -308 7 -161 -40 -369 -94
-424 -14 -14 -47 -59 -73 -100 -41 -64 -59 -82 -124 -123 -96 -61 -165 -136
-194 -213 -49 -128 -59 -135 -274 -207 -129 -43 -298 -128 -385 -194 -17 -13
-38 -23 -47 -23 -9 0 -18 -4 -22 -9 -3 -5 -31 -15 -63 -22 -31 -6 -88 -22
-127 -34 -162 -52 -220 -67 -410 -106 -320 -65 -315 -64 -597 -51 -139 7 -307
12 -374 12 -163 0 -356 16 -484 41 -58 11 -134 24 -170 28 -46 6 -83 19 -125
44 -49 29 -77 37 -154 46 -52 7 -122 21 -155 32 -34 12 -88 27 -121 35 -146
34 -197 48 -300 86 -60 22 -157 55 -215 73 -58 18 -121 40 -140 48 -19 9 -91
36 -160 61 -69 24 -159 60 -200 79 -41 19 -93 38 -115 42 -21 3 -59 18 -84 31
-25 13 -51 24 -58 24 -11 0 -242 149 -297 192 -16 13 -44 32 -62 43 -53 34
-129 102 -322 290 -250 244 -283 288 -399 525 -90 185 -115 255 -143 398 -16
78 -29 97 -60 87 -22 -7 -23 -10 -17 -94 8 -112 38 -227 81 -310 19 -36 53
-104 74 -151 42 -92 137 -243 172 -275 13 -11 34 -38 48 -60 58 -91 479 -497
558 -538 19 -10 81 -49 137 -86 139 -93 277 -165 367 -191 41 -12 84 -28 95
-34 11 -7 54 -25 95 -40 41 -16 100 -39 130 -51 72 -30 572 -196 675 -225 44
-12 132 -37 195 -56 63 -19 160 -43 215 -53 55 -11 132 -31 170 -45 62 -22
262 -62 430 -86 83 -12 790 -32 955 -27 84 2 156 10 190 20 30 9 134 30 230
47 96 17 222 44 280 60 58 17 130 38 160 47 30 8 149 64 265 124 115 59 249
122 296 138 146 51 253 101 284 131 30 29 40 46 90 152 26 58 87 119 132 132
39 12 180 202 244 328 60 118 106 374 89 485 -10 59 -45 162 -78 227 -55 111
-207 264 -407 411 -44 33 -86 65 -94 72 -7 8 -30 22 -51 33 -20 10 -59 35 -85
56 -49 37 -123 88 -199 135 -22 14 -70 47 -106 73 -36 25 -85 58 -109 74 -47
29 -75 48 -225 155 -107 76 -195 160 -230 222 -13 22 -61 103 -108 180 -47 77
-126 222 -177 321 -50 100 -102 191 -114 202 l-23 22 -36 -25 c-25 -17 -38
-35 -43 -57 -4 -18 -12 -47 -18 -65 -9 -27 -7 -40 10 -80 53 -123 77 -188 180
-478 19 -55 45 -129 58 -165 13 -36 37 -90 54 -121 29 -53 161 -440 201 -590
83 -316 157 -465 281 -567 35 -29 86 -71 113 -94 27 -23 67 -55 90 -70 22 -15
88 -70 146 -121 111 -98 159 -166 160 -224 0 -58 -73 -101 -153 -89 -23 4 -58
9 -78 12 -35 6 -38 4 -74 -50 -32 -48 -48 -61 -109 -90 -75 -36 -372 -136
-403 -136 -10 0 -68 -11 -128 -26 -211 -48 -279 -56 -445 -51 -122 4 -168 9
-217 26 -34 11 -74 21 -87 21 -14 0 -65 13 -114 30 -50 16 -98 30 -109 30 -10
0 -89 18 -174 39 -296 74 -415 149 -774 487 -99 93 -212 197 -250 232 -59 54
-150 166 -171 210 -4 8 11 39 32 70 51 74 77 79 122 23 17 -22 42 -41 54 -43
18 -2 27 -15 41 -61 11 -32 25 -61 32 -63 7 -3 104 -102 216 -220 112 -119
236 -241 274 -273 78 -63 289 -193 352 -215 22 -8 59 -24 83 -36 24 -12 78
-28 119 -35 42 -7 177 -32 301 -55 240 -45 355 -52 575 -37 145 10 165 14 320
58 183 52 328 124 409 201 l60 57 21 -19 c40 -37 92 -19 109 37 10 32 -28 99
-91 159 -41 40 -91 71 -206 128 -84 41 -168 81 -188 89 -35 14 -50 38 -63 97
-3 14 -19 46 -36 71 -35 53 -86 182 -140 354 -21 66 -45 137 -54 158 -9 20
-23 70 -30 110 -15 75 -67 220 -109 304 -14 27 -32 76 -41 109 -19 75 -122
388 -136 413 -5 11 -21 74 -35 141 -15 68 -37 152 -51 189 -14 36 -38 111 -54
167 -37 126 -132 339 -169 379 -29 31 -105 135 -161 220 -42 64 -296 322 -375
382 -33 26 -78 63 -100 84 -22 21 -73 56 -113 78 -39 23 -111 69 -158 103
-155 111 -264 281 -166 262 21 -4 36 1 60 21 18 15 32 32 32 39 0 7 -16 49
-35 93 -19 45 -35 90 -35 102 0 30 44 28 75 -4 24 -23 25 -31 25 -134 0 -60 5
-122 11 -137 15 -40 343 -364 414 -409 33 -21 113 -89 177 -152 65 -62 124
-113 132 -113 21 0 39 37 32 65 -6 22 -190 200 -296 285 -30 24 -111 97 -180
162 -69 65 -137 129 -152 142 -61 53 -43 106 36 106 83 0 104 60 70 199 -16
64 -16 65 6 83 32 26 78 22 136 -12z m-1189 -77 c-5 -31 -22 -54 -87 -117 -62
-61 -83 -77 -92 -68 -14 14 2 45 65 129 35 48 89 92 111 93 5 0 6 -17 3 -37z
m1501 -65 c18 -38 36 -282 26 -347 -5 -30 -14 -56 -20 -58 -6 -2 -23 6 -39 19
l-28 22 5 186 c3 103 8 193 12 199 11 17 29 8 44 -21z m2810 -16 c15 -10 59
-40 97 -65 122 -82 115 -68 64 -134 -44 -58 -81 -119 -175 -285 -50 -89 -119
-172 -187 -222 -21 -15 -43 -39 -50 -53 -6 -14 -28 -31 -49 -40 -22 -9 -46
-29 -58 -48 -11 -18 -42 -50 -68 -71 -26 -21 -56 -48 -67 -60 -27 -30 -171
-104 -203 -104 -30 0 -62 26 -62 51 0 20 44 55 83 64 15 4 53 24 85 44 31 21
85 52 119 70 34 19 97 66 140 106 74 69 77 73 66 98 -7 15 -17 27 -23 27 -6 0
-44 -29 -85 -64 -40 -36 -93 -75 -117 -87 -24 -12 -56 -31 -73 -44 -86 -64
-219 -105 -342 -105 -72 0 -85 3 -103 22 -11 12 -20 25 -20 30 0 16 -65 48
-97 48 -21 0 -55 -14 -94 -40 -68 -44 -81 -47 -99 -25 -24 29 -5 86 44 133
l45 42 101 0 c56 0 110 5 121 10 14 8 27 7 48 -5 35 -17 123 -19 226 -5 87 13
238 84 345 164 219 162 231 176 193 218 -23 26 -34 23 -84 -20 -79 -69 -249
-183 -322 -217 -72 -33 -161 -55 -224 -55 l-34 0 7 58 c7 68 -9 95 -55 90 -22
-3 -28 -10 -37 -48 -9 -37 -18 -50 -54 -72 -44 -28 -96 -35 -147 -22 -37 10
-27 20 36 38 61 17 111 48 111 70 0 7 -11 19 -25 26 -32 17 -32 43 1 69 34 26
83 40 210 56 56 8 118 21 139 29 21 9 52 16 69 16 17 0 49 9 72 19 51 23 192
124 262 188 69 61 89 72 135 73 27 0 43 7 59 25 26 30 40 31 76 7z m-7907
-264 c19 -6 50 -22 71 -34 39 -25 42 -32 53 -174 l6 -75 -42 -32 c-56 -43 -91
-43 -135 1 -19 19 -34 43 -34 54 0 23 35 52 62 52 21 0 42 35 32 53 -27 47
-32 48 -100 14 -76 -37 -90 -62 -80 -143 8 -68 22 -89 78 -121 160 -91 318 -7
318 169 0 35 -7 90 -15 123 -13 54 -12 61 2 73 9 6 40 12 68 12 42 0 56 -5 75
-25 13 -14 28 -25 33 -25 5 0 29 -18 53 -40 24 -22 50 -40 59 -40 8 0 27 -19
41 -42 15 -24 37 -54 49 -68 44 -49 73 -218 85 -490 9 -206 12 -223 65 -400
19 -64 32 -122 45 -200 9 -59 28 -118 56 -171 25 -49 132 -158 178 -181 35
-18 46 -19 94 -9 70 14 115 49 148 112 28 56 46 59 56 8 4 -19 14 -65 22 -103
8 -38 12 -74 8 -80 -3 -6 -9 -59 -13 -119 l-6 -108 -49 -71 c-26 -39 -91 -115
-144 -170 -74 -76 -102 -98 -123 -98 -30 0 -32 5 -42 110 -8 78 -28 125 -64
146 -14 9 -36 31 -48 49 -41 63 -187 99 -284 71 -84 -25 -138 -86 -165 -191
-30 -113 -12 -221 53 -306 l38 -51 62 5 c73 5 148 39 177 80 15 20 22 48 24
100 l4 73 -45 41 c-67 62 -135 70 -158 20 -12 -28 4 -77 25 -77 22 0 76 -49
76 -70 0 -25 -19 -38 -66 -46 -37 -5 -43 -3 -67 26 -25 29 -27 39 -27 116 0
135 24 164 132 164 94 -1 179 -44 213 -111 19 -36 38 -258 32 -369 -9 -144
-71 -292 -187 -444 -29 -38 -89 -86 -108 -86 -4 0 -21 -13 -37 -30 -16 -16
-31 -30 -34 -30 -3 0 -28 28 -56 62 -45 55 -51 69 -62 137 -6 42 -19 114 -28
161 -9 47 -24 139 -35 205 -27 182 -17 160 -180 400 -11 17 -46 71 -76 120
-31 50 -82 122 -114 161 -32 39 -88 125 -124 192 -59 107 -70 136 -96 253 -17
72 -32 135 -35 139 -27 43 -20 279 10 370 13 39 32 64 93 121 111 102 112 102
264 97 122 -5 131 -6 201 -41 140 -69 227 -183 253 -332 8 -44 28 -125 45
-180 36 -117 120 -334 131 -341 5 -3 19 -27 33 -54 17 -34 52 -71 121 -129 86
-72 103 -81 164 -95 105 -24 127 -22 166 20 58 61 41 84 -68 88 -47 2 -91 11
-121 24 -91 40 -222 191 -262 302 -9 25 -27 77 -41 115 -35 96 -77 244 -99
340 -23 105 -68 179 -153 250 -107 89 -185 122 -324 136 -123 13 -144 11 -242
-32 -54 -24 -83 -8 -127 68 -48 82 -47 79 -60 220 -11 124 -9 158 17 291 7 34
133 86 245 101 3 1 21 -4 40 -11z m997 -74 c70 -35 135 -99 154 -154 9 -25 21
-61 28 -80 23 -67 48 -105 76 -120 16 -8 31 -16 33 -17 1 -1 7 -28 11 -60 4
-32 20 -98 34 -148 14 -49 35 -128 46 -175 10 -47 24 -99 30 -117 6 -17 10
-48 8 -70 -4 -51 -36 -54 -52 -5 -14 41 -80 126 -163 210 -35 35 -63 65 -63
68 0 3 -8 18 -18 32 -23 33 -56 134 -73 222 -21 108 -39 137 -182 285 -155
160 -155 152 -1 154 68 1 88 -3 132 -25z m-44 -377 c24 -57 27 -97 6 -97 -12
0 -63 129 -56 145 10 28 23 16 50 -48z m7733 -206 c50 -16 109 -42 132 -57 23
-15 66 -35 94 -45 29 -10 53 -24 55 -33 5 -23 -109 -21 -185 2 -37 12 -67 16
-81 11 -19 -7 -20 -13 -15 -77 l6 -69 -41 -16 -41 -16 -146 54 c-213 81 -260
77 -650 -48 -60 -20 -141 -44 -179 -53 -38 -10 -81 -28 -94 -39 l-25 -22 22
-22 c21 -21 29 -22 80 -16 99 12 196 34 262 61 88 36 274 74 362 74 49 0 107
-9 182 -30 61 -16 142 -35 180 -42 59 -11 70 -16 73 -35 4 -26 -16 -32 -78
-21 -25 5 -72 11 -105 14 l-60 6 -35 -74 c-32 -66 -40 -76 -90 -102 -89 -46
-168 -38 -258 28 -52 38 -110 47 -367 53 l-241 6 -154 -33 c-85 -18 -167 -39
-182 -46 -38 -20 -38 -64 -1 -94 31 -24 34 -24 168 14 156 45 194 49 443 42
226 -5 236 -7 295 -33 71 -31 121 -62 112 -71 -10 -10 -74 -2 -151 19 -87 24
-100 19 -138 -45 -29 -50 -91 -107 -144 -132 -85 -40 -222 -32 -332 20 -66 31
-94 32 -241 6 -63 -10 -170 -24 -239 -30 -69 -6 -170 -19 -225 -30 -55 -10
-140 -24 -190 -30 -49 -6 -116 -20 -148 -30 -31 -11 -76 -20 -100 -20 -47 0
-41 -8 -169 232 l-47 88 22 14 c13 8 82 18 169 25 80 7 161 17 180 22 18 6 94
15 170 19 83 6 151 15 174 25 21 8 92 29 158 46 67 17 162 46 211 64 107 40
251 85 269 85 33 0 177 80 327 182 30 20 86 49 124 64 39 14 86 33 105 41 19
8 62 20 95 27 33 8 98 23 145 34 117 29 312 59 386 61 42 1 88 -8 151 -28z
m-1884 -9 c17 -18 21 -39 19 -79 -2 -18 -13 -26 -59 -39 -32 -9 -68 -25 -80
-36 -23 -21 -176 -49 -190 -34 -14 14 15 41 81 77 37 20 82 50 99 66 70 65
102 76 130 45z m-4473 -8 c0 -13 -90 -144 -99 -144 -4 0 -29 -18 -54 -40 -73
-64 -173 -102 -165 -63 3 16 52 56 119 98 18 11 47 40 64 65 34 49 87 90 116
90 11 0 19 -3 19 -6z m168 -22 c2 -14 -8 -40 -22 -61 -14 -20 -26 -43 -26 -49
0 -7 -17 -31 -39 -55 -21 -23 -59 -75 -85 -114 -26 -40 -55 -77 -65 -83 -12
-6 -39 -6 -78 0 -66 11 -128 -4 -168 -39 -11 -10 -41 -32 -66 -49 -87 -58 -65
-94 29 -48 63 31 82 25 66 -21 -10 -30 -102 -100 -144 -110 -14 -3 -39 -17
-56 -30 -29 -21 -104 -33 -104 -16 0 3 25 32 55 64 30 32 55 63 55 69 0 6 -13
23 -29 38 -33 30 -61 89 -81 170 -13 48 -12 58 8 121 22 67 54 121 72 121 5 0
25 -13 43 -30 19 -16 40 -30 46 -30 6 0 17 -11 23 -25 10 -23 7 -30 -50 -89
-47 -48 -62 -71 -62 -93 0 -34 25 -73 47 -73 8 0 50 24 92 53 42 30 94 60 116
67 119 38 156 68 301 248 59 72 81 92 97 90 14 -2 23 -11 25 -26z m-1569 -61
c36 -16 91 -40 121 -54 67 -30 150 -96 187 -151 15 -22 47 -61 71 -87 53 -58
96 -125 106 -164 4 -17 22 -64 40 -105 18 -41 49 -137 69 -213 33 -125 37
-152 37 -267 0 -157 -20 -279 -61 -368 -98 -212 -111 -234 -198 -323 -47 -47
-102 -95 -121 -104 -39 -21 -176 -55 -185 -47 -8 8 -6 155 3 169 4 6 29 17 55
23 56 15 109 59 215 180 121 137 162 245 162 425 0 284 -67 471 -263 738 -27
37 -53 67 -57 67 -4 0 -29 17 -56 38 -81 62 -201 132 -229 132 -29 0 -55 38
-55 79 0 34 4 41 28 49 43 16 61 14 131 -17z m3502 -6 c38 -2 80 -10 100 -20
51 -27 255 -241 304 -320 11 -16 35 -50 55 -75 20 -25 52 -67 70 -95 19 -27
49 -66 68 -87 44 -49 34 -72 -46 -93 -31 -8 -91 -25 -132 -37 -41 -11 -103
-26 -138 -31 l-63 -10 -50 49 c-28 27 -71 77 -96 112 -43 59 -47 62 -86 62
-23 -1 -60 -7 -82 -15 -22 -8 -71 -15 -108 -15 -109 0 -175 -38 -251 -144 -48
-67 -95 -108 -151 -132 -30 -12 -35 -19 -35 -47 0 -17 -8 -46 -18 -64 -9 -17
-28 -51 -41 -75 -13 -23 -52 -80 -88 -125 -35 -46 -80 -118 -99 -160 -20 -43
-39 -85 -43 -93 -8 -17 -151 -68 -192 -69 -15 -1 -35 9 -49 24 -13 14 -28 25
-33 25 -14 0 -103 57 -157 101 -62 50 -160 95 -250 115 -64 14 -118 15 -376 9
-286 -6 -374 -3 -374 15 0 4 30 13 68 20 93 16 213 49 238 65 12 7 61 29 110
48 201 79 261 107 299 139 22 19 59 42 81 51 23 9 57 25 75 36 19 12 40 21 47
21 7 0 41 24 76 53 131 107 148 119 229 157 46 21 89 45 97 55 39 47 319 262
431 330 27 17 83 54 125 83 42 28 80 52 85 52 6 0 29 10 52 22 80 41 209 79
247 72 19 -4 65 -8 101 -9z m2643 -41 c27 -27 19 -51 -29 -84 -59 -41 -98 -56
-162 -65 -43 -6 -53 -4 -53 8 0 26 175 156 212 157 9 0 24 -7 32 -16z m2799
-73 c54 -6 102 -13 106 -15 4 -3 43 -12 87 -21 116 -24 278 -81 361 -127 74
-40 93 -60 93 -96 0 -22 -39 -32 -131 -32 -31 0 -70 -5 -86 -11 -26 -8 -43 -5
-109 20 -44 16 -113 37 -154 45 -41 9 -127 28 -190 42 -157 35 -261 41 -347
21 -37 -9 -101 -24 -141 -33 -41 -9 -122 -40 -181 -70 -93 -46 -120 -65 -199
-144 -51 -51 -92 -95 -92 -99 0 -5 -14 -26 -31 -47 -54 -68 -131 -256 -144
-351 -4 -27 -22 -113 -42 -192 -35 -143 -35 -143 -16 -178 l18 -34 -52 -50
c-42 -40 -59 -50 -80 -47 -26 3 -28 7 -31 53 -4 63 10 137 57 295 21 69 43
148 51 175 27 104 40 142 74 224 20 46 45 94 57 107 11 12 32 46 45 75 31 66
163 203 264 273 214 150 349 205 550 226 82 9 117 8 263 -9z m-7783 -260 c0
-6 -4 -13 -10 -16 -5 -3 -10 1 -10 9 0 9 5 16 10 16 6 0 10 -4 10 -9z m7695
-30 c204 -43 276 -65 279 -85 0 -6 -21 -21 -48 -35 -28 -14 -85 -60 -127 -101
l-77 -75 -7 -76 c-12 -124 -2 -268 20 -314 44 -89 213 -129 328 -77 27 12 71
38 98 58 83 61 139 201 109 273 -15 38 -100 96 -163 113 -48 12 -49 12 -132
-30 -117 -60 -161 -134 -97 -161 31 -13 45 -9 115 33 54 32 105 36 142 12 50
-33 21 -91 -78 -155 -69 -46 -97 -49 -167 -23 -56 22 -69 53 -69 172 -1 138
28 179 169 250 114 58 248 99 375 117 131 19 203 20 371 8 l111 -8 -28 -73
c-19 -51 -40 -84 -64 -105 -63 -56 -118 -130 -124 -167 -5 -29 -12 -37 -41
-47 -35 -12 -78 -59 -156 -170 -51 -73 -76 -107 -115 -155 -37 -47 -44 -57
-103 -146 -109 -163 -147 -224 -168 -269 -13 -28 -33 -64 -46 -82 -12 -18 -28
-47 -34 -65 -13 -37 -74 -138 -111 -183 -14 -17 -42 -59 -62 -93 -57 -95 -154
-174 -149 -121 1 8 12 61 24 119 40 189 15 335 -56 335 l-29 0 3 -97 c6 -182
-22 -324 -78 -395 -25 -32 -25 -51 -2 -76 16 -18 16 -20 -16 -47 -43 -36 -222
-90 -294 -90 -32 1 -32 1 -13 16 11 9 42 27 68 40 71 37 78 60 88 299 9 199
28 334 54 385 8 15 37 54 65 86 52 61 63 101 40 145 -13 24 -55 25 -75 2 -62
-73 -84 -102 -98 -130 -9 -17 -35 -52 -57 -78 -22 -26 -49 -63 -59 -83 -28
-53 -86 -105 -160 -142 -35 -17 -75 -43 -89 -57 -23 -23 -24 -27 -9 -38 9 -7
57 -15 107 -18 162 -12 186 -32 177 -150 -8 -113 -20 -142 -72 -173 l-43 -25
-68 17 c-82 20 -142 57 -160 99 -10 25 -10 44 2 105 8 41 14 88 14 103 0 31
-24 46 -49 30 -26 -16 -69 -104 -76 -153 -8 -59 -21 -81 -35 -60 -11 18 -28
91 -36 165 -6 49 -3 63 40 162 26 59 58 118 72 131 13 13 36 46 50 73 14 28
45 77 69 110 24 33 53 85 65 117 27 71 45 101 137 225 40 55 90 131 112 170
22 40 60 91 85 114 55 52 78 95 111 208 32 113 33 164 1 194 -33 31 -95 40
-112 16 -11 -15 -10 -24 6 -56 11 -21 20 -58 20 -81 0 -56 -44 -148 -101 -213
-25 -27 -66 -84 -92 -125 -68 -108 -149 -223 -183 -262 -17 -19 -36 -50 -43
-69 -22 -60 -65 -140 -96 -177 -57 -69 -123 -168 -155 -233 -17 -35 -37 -75
-45 -89 -45 -76 -75 -153 -75 -189 0 -135 67 -263 218 -420 34 -35 62 -69 62
-77 0 -7 -18 -23 -40 -34 -23 -12 -73 -50 -112 -86 -86 -79 -104 -88 -221
-118 -50 -13 -100 -27 -109 -31 -19 -7 -76 47 -125 120 -15 22 -38 53 -50 68
-13 16 -23 39 -23 52 0 41 147 145 205 145 56 0 72 -41 35 -87 -11 -14 -20
-30 -20 -34 0 -5 9 -18 20 -29 30 -30 73 -26 109 11 58 58 54 105 -17 181 -51
54 -88 78 -124 78 -37 0 -118 -43 -187 -99 -35 -28 -70 -51 -77 -51 -8 0 -31
16 -53 35 -52 47 -71 108 -71 224 0 129 15 160 104 220 39 27 99 73 132 103
34 30 79 68 100 84 59 44 130 102 216 176 42 36 88 74 102 83 14 10 74 76 133
148 60 72 135 161 168 197 120 132 162 187 219 280 32 52 69 111 83 130 32 45
27 99 -13 141 -32 34 -86 39 -134 14 -32 -16 -103 -106 -114 -142 -13 -41 -86
-118 -149 -155 -34 -21 -68 -38 -74 -38 -57 0 103 263 224 370 25 22 50 40 56
40 6 0 24 11 41 23 121 92 407 138 601 98z m-8673 -24 c31 -30 35 -43 51 -143
9 -60 17 -123 17 -141 0 -43 -33 -117 -61 -137 -37 -26 -43 -4 -19 68 24 71
24 85 -10 201 -11 39 -25 88 -32 111 -12 42 -7 74 11 74 6 0 25 -15 43 -33z
m4329 -293 c12 -25 27 -87 34 -137 8 -51 23 -117 34 -147 27 -73 26 -86 -6
-97 -57 -21 -200 -63 -211 -63 -7 0 -56 -20 -109 -44 -54 -24 -136 -55 -183
-70 -47 -15 -111 -40 -142 -56 l-57 -29 -41 56 c-23 30 -56 63 -74 74 -35 21
-236 232 -236 248 0 14 103 59 190 83 41 11 100 28 130 38 30 10 80 25 110 33
30 8 102 29 160 46 58 17 116 33 130 36 14 3 66 21 115 40 122 46 131 46 156
-11z m3146 -66 c-9 -52 -43 -167 -72 -243 -14 -38 -32 -99 -40 -135 -11 -54
-19 -69 -46 -90 -18 -14 -71 -61 -117 -105 -85 -81 -122 -135 -122 -178 0 -13
-13 -43 -28 -68 -30 -46 -124 -139 -141 -139 -40 0 -64 164 -42 282 18 93 80
211 156 298 151 171 212 234 279 288 91 73 159 122 170 122 4 0 6 -15 3 -32z
m-4352 -120 c192 -196 536 -528 546 -528 5 0 9 -7 9 -15 0 -28 -29 -28 -63 -1
-17 15 -72 57 -122 95 -49 37 -124 99 -165 137 -389 358 -410 377 -410 394 0
16 39 50 58 50 9 0 76 -59 147 -132z m-203 -64 c21 -13 101 -82 178 -152 235
-212 342 -302 400 -332 30 -15 74 -48 98 -73 l43 -44 -77 -67 c-43 -38 -88
-73 -102 -79 -27 -12 -15 -23 -133 118 -27 33 -79 94 -115 135 -36 41 -74 93
-86 114 -28 54 -81 120 -219 270 -81 88 -95 112 -78 132 14 17 40 11 91 -22z
m-86 -147 c99 -105 209 -238 257 -312 53 -80 131 -174 213 -257 58 -58 66 -86
23 -80 -43 7 -85 40 -129 104 -24 35 -64 82 -90 104 -25 23 -59 61 -75 85 -17
24 -58 78 -93 119 -76 90 -192 262 -192 284 0 30 27 16 86 -47z m-2189 -83
c40 -25 126 -64 190 -87 l118 -41 370 -6 371 -5 44 -32 c24 -18 55 -33 68 -33
13 0 56 -14 96 -30 76 -32 127 -73 110 -89 -5 -5 -99 -11 -209 -14 -135 -4
-239 -12 -320 -26 -139 -24 -163 -31 -270 -81 -111 -51 -122 -52 -224 -35 -88
16 -93 15 -173 -6 -99 -26 -138 -45 -205 -97 -68 -54 -155 -97 -228 -110 -49
-10 -204 -32 -221 -32 -14 0 2 28 44 73 104 113 162 196 212 302 29 61 58 124
66 140 17 37 54 164 54 187 0 22 18 68 26 68 4 0 40 -21 81 -46z m3599 -86
c20 -33 22 -108 4 -213 -10 -60 -22 -153 -25 -205 -19 -271 -58 -383 -177
-502 -38 -40 -82 -89 -95 -110 -14 -21 -58 -63 -99 -94 -74 -57 -84 -69 -84
-107 0 -12 -7 -31 -15 -41 -8 -11 -15 -27 -15 -37 0 -9 -17 -36 -39 -59 -36
-39 -61 -95 -61 -134 0 -9 -6 -16 -13 -16 -7 0 -31 -13 -53 -30 -44 -33 -101
-41 -111 -14 -10 27 24 82 59 97 37 16 100 76 95 91 -12 35 -51 28 -136 -26
-15 -9 -23 -10 -32 -1 -14 14 33 68 93 109 24 15 81 62 127 104 46 41 128 113
181 160 117 103 197 191 206 224 7 30 -11 66 -34 66 -25 0 -62 -28 -62 -47 0
-19 -158 -183 -176 -183 -7 0 -33 -19 -56 -42 -24 -24 -85 -81 -137 -128 -92
-84 -218 -211 -300 -302 -24 -26 -47 -45 -52 -42 -13 8 -10 65 4 91 7 12 39
50 72 85 62 65 92 116 81 143 -9 24 -23 18 -71 -30 -26 -25 -54 -49 -64 -54
-25 -14 -43 2 -39 35 4 35 48 67 121 88 57 17 103 45 283 176 27 19 80 67 119
106 38 39 102 97 142 128 54 42 82 74 113 125 42 73 49 105 27 135 -22 30 -50
15 -85 -49 -18 -33 -47 -70 -65 -83 -42 -29 -143 -128 -184 -179 -18 -22 -58
-55 -90 -73 -32 -18 -75 -46 -96 -62 -40 -32 -67 -31 -67 1 0 25 -28 41 -69
41 -37 0 -60 31 -68 88 -12 88 23 130 172 208 49 26 100 66 173 137 121 120
174 191 181 249 l6 42 75 22 c41 12 125 45 185 73 115 53 139 59 151 39z m135
-456 c28 -13 92 -27 170 -37 75 -10 130 -22 141 -31 19 -18 32 -76 23 -104
-11 -35 -108 -26 -260 24 l-130 43 -3 67 c-2 38 1 66 5 64 4 -2 29 -14 54 -26z
m3824 -162 c3 -5 -1 -10 -10 -10 -9 0 -13 5 -10 10 3 6 8 10 10 10 2 0 7 -4
10 -10z m-3775 -80 c47 -17 127 -39 179 -50 51 -10 103 -26 116 -34 17 -11 28
-40 50 -123 58 -229 88 -329 106 -352 10 -13 19 -29 19 -35 0 -7 18 -59 40
-116 53 -135 96 -193 158 -216 26 -9 90 -36 142 -59 52 -23 112 -48 132 -54
42 -14 68 -44 68 -77 0 -15 -15 -31 -47 -52 -141 -88 -393 -192 -467 -192 -16
0 -58 -5 -93 -12 -57 -10 -68 -10 -98 6 -18 10 -38 29 -45 42 -7 13 -31 35
-53 50 -23 15 -72 56 -111 91 -39 36 -91 84 -116 106 -25 23 -70 61 -100 84
-69 52 -298 295 -345 366 -19 28 -42 62 -51 75 -16 21 -16 24 6 47 13 14 31
25 41 25 10 0 37 -27 62 -62 49 -68 432 -452 563 -564 71 -61 111 -93 224
-182 36 -29 93 -28 98 2 4 20 -73 97 -174 174 -169 128 -583 524 -633 606 -11
17 -31 42 -45 55 -34 32 -33 42 9 98 40 55 37 52 88 94 45 38 58 61 98 177 30
86 48 112 78 112 9 0 54 -14 101 -30z m4180 -244 c0 -3 -4 -8 -10 -11 -5 -3
-10 -1 -10 4 0 6 5 11 10 11 6 0 10 -2 10 -4z m-5202 -28 c-7 -19 -70 -59 -87
-56 -28 6 -17 32 19 50 41 21 73 23 68 6z m4560 -153 c67 -31 69 -50 5 -41
-53 7 -93 29 -93 51 0 21 27 18 88 -10z"/>
<path d="M7418 11898 c-58 -18 -80 -32 -147 -95 -86 -80 -102 -106 -78 -130
23 -23 57 -10 124 47 39 33 79 57 122 71 58 20 78 21 194 15 140 -7 157 -2
157 41 0 32 -41 49 -151 62 -113 15 -143 13 -221 -11z"/>
<path d="M7835 11338 c-58 -31 -62 -91 -10 -137 48 -42 78 -40 110 6 34 51 32
85 -6 117 -33 28 -62 32 -94 14z"/>
<path d="M1214 4760 c-32 -17 -70 -45 -84 -62 -53 -68 -78 -215 -46 -277 14
-26 70 -80 134 -128 17 -13 45 -23 64 -23 42 0 106 -30 136 -62 12 -14 31 -47
41 -74 52 -138 63 -162 79 -176 31 -27 51 -29 74 -6 18 18 20 28 14 82 -16
161 -19 281 -6 360 16 103 9 142 -35 193 -18 22 -37 53 -41 69 -30 121 -195
173 -330 104z m192 -92 c27 -13 55 -35 62 -49 15 -29 9 -89 -17 -174 -18 -59
-19 -60 -58 -63 -22 -2 -60 4 -84 13 -24 9 -57 20 -74 23 -35 9 -62 54 -71
125 -6 41 -3 50 24 85 61 76 123 87 218 40z m131 -270 c-3 -18 -9 -54 -12 -79
-9 -63 -17 -74 -43 -60 -39 21 -46 48 -20 80 13 16 31 43 40 60 23 41 42 41
35 -1z"/>
<path d="M1280 4592 c-43 -21 -50 -56 -20 -95 25 -31 50 -34 91 -10 33 20 45
49 34 85 -14 42 -46 49 -105 20z"/>
<path d="M1021 4246 c-11 -14 4 -79 32 -131 20 -38 110 -135 144 -155 55 -32
113 -21 113 23 0 20 -16 34 -115 105 -6 4 -27 34 -49 67 -66 103 -97 125 -125
91z"/>
<path d="M10325 2771 c-16 -10 -38 -28 -49 -39 -19 -21 -18 -22 21 -62 34 -34
47 -40 82 -40 36 0 44 4 61 33 25 40 26 89 2 110 -25 22 -80 21 -117 -2z"/>
</g>
</svg>
